 <svg  version="1.0" xmlns="http://www.w3.org/2000/svg"  width="900.000000pt" height="987.000000pt" viewBox="0 0 900.000000 987.000000"  preserveAspectRatio="xMidYMid meet">  <g transform="translate(0.000000,987.000000) scale(0.100000,-0.100000)" fill="#a50303" stroke="none"> <path d="M1675 9720 c-418 -6 -418 -6 -495 -51 -8 -5 -26 -14 -39 -19 -30 -13 -148 -131 -161 -161 -5 -13 -14 -31 -19 -39 -30 -53 -41 -82 -41 -108 0 -16 -7 -46 -15 -65 -8 -20 -15 -49 -15 -65 0 -16 -7 -46 -15 -65 -8 -20 -15 -50 -15 -67 0 -17 -5 -41 -11 -52 -6 -11 -15 -44 -19 -72 -5 -28 -14 -71 -20 -96 -6 -25 -16 -63 -21 -85 -6 -22 -14 -63 -19 -91 -4 -28 -13 -61 -19 -72 -6 -11 -11 -34 -11 -50 0 -16 -7 -49 -15 -72 -8 -23 -15 -55 -15 -70 0 -15 -7 -44 -15 -63 -8 -20 -15 -49 -15 -65 0 -16 -7 -46 -15 -65 -8 -20 -15 -49 -15 -65 0 -16 -7 -46 -15 -65 -8 -20 -15 -49 -15 -65 0 -16 -7 -46 -15 -65 -8 -20 -15 -49 -15 -65 0 -16 -7 -46 -15 -65 -8 -20 -15 -49 -15 -65 0 -16 -7 -46 -15 -65 -8 -20 -15 -49 -15 -65 0 -16 -7 -46 -15 -65 -8 -20 -15 -49 -15 -65 0 -16 -7 -46 -15 -65 -8 -20 -15 -49 -15 -65 0 -16 -7 -46 -15 -65 -13 -31 -15 -162 -15 -965 0 -878 1 -931 19 -980 10 -29 23 -58 30 -65 6 -6 11 -17 11 -23 0 -7 6 -19 13 -26 6 -8 22 -25 35 -39 l22 -26 -30 -34 c-29 -32 -45 -62 -84 -152 -14 -33 -16 -92 -16 -465 l0 -427 33 -35 c35 -38 95 -70 130 -70 27 0 88 30 113 55 10 9 26 33 36 51 16 31 18 66 18 414 0 346 2 383 17 408 24 35 43 53 80 75 29 16 227 17 3770 17 l3738 -1 39 -27 c22 -15 49 -45 60 -67 21 -40 21 -50 24 -900 2 -658 0 -871 -10 -905 -16 -58 -68 -107 -123 -115 -22 -3 -1719 -4 -3770 -3 l-3730 3 -30 23 c-62 49 -65 61 -65 298 0 187 -2 220 -17 247 -21 36 -49 67 -62 67 -5 0 -14 7 -21 15 -8 10 -31 15 -71 15 -56 0 -59 -2 -108 -49 l-51 -50 0 -258 c0 -209 3 -263 15 -287 8 -15 15 -34 15 -40 0 -21 38 -87 64 -111 34 -31 33 -60 -2 -93 -26 -26 -38 -47 -76 -135 -14 -33 -16 -116 -16 -738 0 -619 2 -705 16 -737 18 -41 54 -114 69 -142 14 -24 106 -115 125 -123 8 -4 30 -16 48 -27 54 -33 143 -60 197 -60 l51 0 -4 -249 c-3 -137 -2 -269 2 -294 8 -53 60 -111 108 -121 43 -8 7142 -8 7165 1 37 14 74 49 95 89 19 40 20 54 16 308 l-4 266 56 0 c30 1 66 7 80 15 14 8 35 14 46 15 12 0 27 7 34 15 7 8 21 15 32 15 33 0 170 147 204 220 44 93 54 161 54 382 0 219 -6 247 -58 295 -89 80 -244 37 -268 -75 -4 -20 -6 -117 -5 -214 4 -222 -10 -272 -90 -320 -28 -17 -174 -18 -3784 -18 l-3754 0 -51 50 -50 51 0 649 c0 610 1 651 18 679 20 32 55 63 86 74 23 9 7478 9 7512 1 41 -10 92 -69 105 -120 8 -30 10 -101 6 -207 -7 -223 3 -261 85 -313 86 -55 195 -12 237 92 9 22 11 90 8 250 -4 218 -14 305 -35 326 -7 7 -12 19 -12 26 0 8 -16 34 -35 58 -19 23 -35 52 -35 64 0 12 16 41 35 64 19 24 35 49 35 57 0 8 6 23 14 34 7 11 17 38 21 60 4 22 10 438 12 925 4 900 2 986 -33 1053 -8 16 -14 33 -14 39 0 5 -20 36 -45 67 l-44 58 29 28 c33 31 84 132 96 185 14 68 16 632 3 675 -31 99 -151 146 -237 91 -47 -30 -67 -54 -77 -91 -4 -16 -7 -150 -6 -297 3 -279 -1 -317 -41 -367 -10 -14 -32 -33 -49 -43 -28 -17 -174 -18 -3784 -18 l-3754 0 -50 49 -51 49 -2 789 c-2 433 -3 789 -2 791 1 3 7737 3 7739 0 0 -2 -2 -115 -5 -253 -4 -163 -2 -265 5 -293 21 -86 103 -135 198 -117 43 8 100 60 115 104 16 45 16 721 1 788 -6 27 -17 69 -25 94 -8 26 -14 62 -14 80 -1 19 -7 45 -15 59 -8 14 -14 39 -15 56 0 17 -7 51 -15 74 -8 23 -15 55 -15 70 0 15 -7 44 -15 63 -8 20 -15 50 -15 67 0 17 -5 41 -12 53 -7 12 -15 45 -19 72 -4 28 -12 68 -18 90 -5 22 -15 60 -21 85 -6 25 -15 68 -20 96 -4 28 -13 61 -19 72 -6 11 -11 35 -11 52 0 17 -7 47 -15 67 -8 19 -15 49 -15 65 0 16 -7 45 -15 65 -8 19 -15 49 -15 65 0 16 -7 45 -15 65 -8 19 -15 49 -15 65 0 16 -7 45 -15 65 -8 19 -15 49 -15 65 0 16 -7 45 -15 65 -8 19 -15 52 -15 72 -1 20 -7 47 -15 61 -8 14 -14 39 -15 56 0 17 -7 51 -15 74 -8 23 -15 54 -15 69 0 44 -39 149 -87 233 -16 30 -129 137 -156 148 -12 6 -29 14 -37 19 -8 4 -31 17 -50 27 -34 18 -102 19 -2305 24 -1349 3 -2286 1 -2310 -4 -79 -18 -125 -76 -125 -157 0 -67 43 -135 100 -155 14 -5 996 -11 2282 -14 l2256 -5 27 -25 c43 -40 72 -92 78 -140 3 -25 10 -64 16 -87 26 -101 33 -131 41 -179 4 -28 13 -61 19 -72 6 -11 11 -35 11 -52 0 -17 7 -47 15 -67 8 -19 15 -49 15 -65 0 -16 7 -45 15 -65 8 -19 15 -49 15 -65 0 -16 7 -45 15 -65 8 -19 15 -49 15 -65 0 -16 7 -45 15 -65 8 -19 15 -49 15 -65 0 -16 7 -45 15 -65 8 -19 15 -49 15 -65 0 -16 7 -45 15 -65 8 -19 15 -48 15 -63 0 -15 7 -47 15 -70 8 -23 15 -55 15 -70 0 -15 7 -44 15 -63 8 -20 15 -50 15 -67 0 -17 5 -41 11 -52 6 -11 15 -44 19 -72 11 -63 25 -121 53 -208 11 -37 19 -70 16 -73 -4 -4 -5252 -7 -7651 -5 -13 0 -9 25 7 56 8 16 15 39 15 50 0 12 7 38 15 57 8 20 15 49 15 65 0 16 7 46 15 65 8 20 15 49 15 65 0 16 7 46 15 65 8 20 15 49 15 65 0 16 7 46 15 65 8 20 15 50 15 67 0 17 5 41 11 52 6 11 15 44 19 72 5 28 14 71 20 96 6 25 16 63 21 85 6 22 14 63 19 91 4 28 13 61 19 72 6 11 11 34 11 50 0 16 7 46 15 65 8 20 15 53 15 74 1 21 7 49 15 63 8 14 14 41 15 61 0 20 7 53 15 72 8 20 15 51 15 69 1 18 7 44 15 58 8 14 14 42 15 63 0 21 5 48 11 59 6 11 15 44 19 72 23 135 65 207 131 220 18 3 201 6 409 6 414 0 419 1 477 60 57 58 54 166 -6 223 -33 32 -108 60 -143 55 -7 -1 -193 -5 -413 -8z m403 -109 c54 -11 66 -22 58 -55 -14 -56 -26 -58 -368 -57 -397 2 -446 -7 -539 -91 -53 -49 -84 -112 -109 -223 -12 -55 -28 -122 -36 -150 -14 -52 -60 -256 -75 -335 -5 -25 -13 -61 -18 -80 -11 -38 -42 -174 -91 -390 -16 -74 -36 -160 -43 -190 -8 -30 -20 -82 -27 -115 -7 -33 -15 -67 -18 -75 -3 -8 -11 -42 -17 -75 -7 -33 -20 -94 -30 -135 -30 -132 -34 -154 -35 -209 0 -52 2 -57 45 -97 26 -26 61 -48 85 -54 29 -8 1112 -11 3770 -12 3118 0 3738 2 3776 13 34 10 56 26 81 56 48 58 55 94 38 173 -8 36 -21 103 -30 150 -9 47 -23 108 -31 135 -8 28 -18 70 -23 95 -5 25 -21 97 -36 160 -15 63 -31 133 -35 155 -4 22 -20 86 -34 143 -15 56 -32 126 -37 155 -26 138 -40 199 -62 282 -13 50 -30 117 -37 150 -7 33 -16 74 -20 90 -5 17 -16 66 -25 110 -35 163 -43 182 -103 246 -30 33 -78 72 -106 87 l-51 27 -2085 2 c-2351 3 -2340 2 -2363 22 -25 20 -22 68 6 83 18 10 452 13 2227 15 1454 1 2220 -1 2250 -8 77 -17 147 -55 202 -111 72 -72 108 -159 158 -388 21 -95 80 -345 102 -430 6 -25 17 -74 24 -110 30 -150 43 -211 48 -218 2 -4 14 -54 26 -112 12 -58 25 -118 30 -135 10 -32 32 -130 49 -210 6 -27 24 -106 41 -175 16 -69 33 -151 36 -182 4 -32 13 -63 20 -69 8 -6 14 -28 14 -48 0 -20 4 -41 8 -46 22 -25 32 -170 33 -475 1 -350 -2 -375 -49 -387 -56 -14 -72 51 -70 280 0 98 -2 180 -6 184 -3 3 -6 16 -6 28 0 25 -83 109 -124 125 -34 13 -7613 15 -7659 2 -41 -11 -126 -99 -131 -136 -10 -67 -15 -1403 -6 -1469 6 -37 19 -85 30 -107 29 -57 111 -133 161 -150 38 -12 542 -15 3679 -17 2150 -2 3680 0 3746 6 123 10 149 20 212 81 90 87 101 137 106 477 3 161 6 196 20 218 21 32 51 30 78 -6 18 -23 19 -45 19 -279 -1 -139 -3 -269 -7 -289 -8 -47 -33 -122 -45 -137 -5 -6 -18 -38 -28 -71 -23 -72 -17 -116 29 -197 16 -29 34 -77 40 -107 7 -35 11 -370 10 -940 0 -872 0 -887 -21 -955 -11 -38 -29 -83 -38 -100 -10 -16 -24 -54 -31 -82 -11 -50 -11 -55 18 -115 16 -34 37 -89 47 -122 9 -33 20 -71 23 -85 4 -14 5 -103 1 -198 -5 -146 -9 -175 -24 -192 -22 -25 -36 -25 -66 -2 -21 18 -23 27 -29 208 -8 210 -8 211 -85 309 -48 63 -74 77 -169 96 -44 8 -7272 12 -7401 4 -116 -8 -235 -100 -265 -205 -14 -50 -15 -1244 -1 -1295 17 -64 73 -136 132 -173 91 -55 -180 -52 3839 -49 3636 2 3706 2 3750 21 25 11 48 24 51 29 4 5 17 14 30 21 13 6 42 39 65 72 37 55 42 71 50 145 4 46 7 119 5 161 -3 77 13 173 30 184 21 13 70 -8 81 -34 12 -30 14 -328 3 -394 -9 -51 -41 -123 -74 -167 -34 -45 -137 -121 -164 -121 -11 0 -28 -6 -36 -14 -9 -7 -41 -21 -71 -30 -59 -19 -115 -72 -137 -130 -7 -20 -12 -105 -12 -234 -1 -231 -8 -264 -63 -286 -28 -12 -583 -14 -3539 -13 -3220 2 -3507 3 -3530 18 -39 26 -50 91 -49 289 0 96 -4 191 -9 211 -12 53 -68 118 -119 140 -24 11 -49 19 -57 19 -7 0 -18 7 -25 15 -7 8 -21 15 -32 15 -55 0 -179 109 -215 190 -37 83 -43 191 -42 835 2 640 -3 587 69 755 28 65 31 80 23 110 -13 44 -40 120 -66 185 -17 42 -21 81 -25 240 l-5 190 28 33 c31 37 47 40 74 13 16 -16 19 -40 23 -202 4 -158 8 -190 25 -229 31 -68 89 -128 152 -158 l56 -27 3730 0 c3077 0 3737 2 3768 13 53 19 144 96 167 143 12 22 25 61 31 87 11 51 13 1671 2 1732 -13 78 -85 175 -155 211 -21 11 -62 24 -90 29 -33 7 -1368 10 -3732 10 -3913 0 -3715 2 -3803 -44 -32 -16 -91 -84 -115 -131 -29 -58 -35 -123 -38 -430 -1 -170 -6 -319 -11 -331 -14 -40 -42 -46 -72 -18 -15 13 -29 35 -32 47 -3 12 -4 180 -2 372 l4 350 32 75 c71 166 72 175 21 285 -60 129 -58 100 -59 1059 -1 843 0 881 19 954 37 145 52 207 60 252 5 25 13 65 19 90 14 62 57 247 81 350 11 47 33 145 50 218 17 74 35 142 40 152 6 10 10 33 10 49 0 17 11 80 25 139 14 59 35 145 46 192 11 47 36 150 55 230 20 80 42 174 49 210 20 94 30 130 54 177 12 23 21 46 21 50 0 15 113 119 154 142 80 45 120 49 476 50 184 0 354 -4 378 -8z"/> <path d="M1655 930 c-207 -3 -357 -9 -366 -15 -37 -23 -89 -75 -105 -107 -14 -26 -17 -57 -17 -148 1 -63 6 -127 12 -142 17 -45 92 -115 136 -127 29 -8 938 -11 3255 -10 1768 1 3241 0 3272 -1 31 0 75 4 98 10 49 13 118 72 137 117 13 33 19 223 7 281 -9 46 -81 118 -131 131 -31 9 -826 12 -2995 14 -1624 1 -3110 0 -3303 -3z m6343 -270 l-3 -170 -3359 0 c-1848 0 -3361 2 -3363 4 -10 9 -4 329 5 335 6 3 1520 5 3366 3 l3356 -2 -2 -170z"/> <path d="M2573 9715 c-46 -12 -93 -43 -93 -60 0 -7 -7 -18 -15 -25 -22 -18 -20 -117 3 -151 54 -81 82 -89 320 -89 212 0 235 5 288 59 81 83 32 248 -79 267 -65 10 -382 10 -424 -1z m357 -110 c7 -8 21 -15 31 -15 23 0 24 -12 4 -49 -17 -35 -47 -41 -202 -41 -126 0 -158 8 -175 45 -24 54 27 72 208 74 97 1 124 -2 134 -14z"/> <path d="M6578 6441 c-27 -4 -53 -12 -60 -19 -7 -7 -19 -12 -28 -12 -26 0 -107 -82 -139 -142 -29 -53 -31 -65 -31 -156 0 -71 4 -104 15 -118 8 -10 15 -27 15 -37 0 -10 7 -20 15 -23 8 -4 15 -10 15 -15 0 -21 96 -97 149 -118 58 -23 167 -26 215 -6 23 9 48 21 56 26 8 5 24 13 35 18 34 15 94 88 120 148 30 66 36 195 10 229 -8 10 -15 29 -15 41 0 28 -101 132 -155 160 -45 23 -147 34 -217 24z m170 -130 c173 -89 158 -332 -25 -401 -84 -31 -143 -22 -217 36 -43 33 -86 117 -86 167 0 69 76 180 140 206 44 17 147 13 188 -8z"/> <path d="M7585 6441 c-115 -20 -213 -113 -254 -242 -37 -119 25 -288 133 -357 70 -45 107 -56 191 -56 81 0 121 11 180 49 37 23 105 95 105 110 0 6 5 16 12 23 16 16 37 98 37 147 0 49 -21 131 -37 147 -7 7 -12 18 -12 24 0 22 -93 109 -140 131 -49 24 -152 35 -215 24z m170 -128 c95 -48 135 -143 110 -263 -4 -22 -25 -53 -54 -83 -59 -62 -128 -85 -199 -67 -68 16 -86 29 -131 89 -44 58 -63 130 -41 156 6 8 9 19 5 24 -13 22 38 88 108 140 42 32 141 34 202 4z"/> <path d="M1216 6354 c-50 -18 -70 -36 -96 -86 -25 -49 -25 -87 0 -136 26 -50 51 -72 98 -89 51 -17 2064 -19 2123 -1 48 14 91 60 107 115 25 83 -27 175 -115 201 -31 9 -284 12 -1059 11 -861 0 -1025 -3 -1058 -15z m2058 -105 c62 -17 61 -81 -2 -99 -41 -11 -1916 -15 -1972 -4 -42 9 -67 59 -43 86 8 9 27 19 42 21 56 9 1941 5 1975 -4z"/> <path d="M6575 4258 c-86 -21 -143 -57 -189 -120 -58 -77 -66 -105 -66 -214 0 -78 3 -104 15 -114 8 -7 15 -20 15 -30 0 -30 102 -131 155 -153 33 -15 121 -37 144 -37 27 0 114 25 141 41 8 5 24 13 35 19 47 22 109 95 134 159 22 55 26 197 7 226 -9 13 -16 29 -16 35 0 16 -40 70 -79 107 -41 40 -80 60 -149 79 -59 16 -88 16 -147 2z m156 -123 c56 -25 95 -67 123 -131 20 -49 23 -67 16 -90 -5 -16 -12 -41 -14 -55 -3 -14 -23 -46 -45 -71 -42 -47 -112 -78 -175 -78 -46 1 -136 50 -171 93 -27 35 -30 47 -33 120 -2 76 0 85 26 122 15 22 50 55 77 73 41 26 59 32 106 32 31 0 72 -7 90 -15z"/> <path d="M7575 4258 c-22 -6 -47 -14 -55 -19 -8 -5 -24 -13 -36 -18 -26 -11 -114 -101 -114 -116 0 -6 -5 -16 -12 -23 -32 -32 -47 -166 -27 -231 26 -84 95 -181 144 -202 11 -5 27 -13 35 -18 24 -15 120 -41 149 -41 27 0 114 25 141 41 8 5 21 12 29 16 20 9 75 64 105 104 29 41 56 130 56 187 -1 47 -22 128 -38 144 -7 7 -12 17 -12 24 0 15 -89 101 -126 121 -37 20 -130 43 -169 41 -16 0 -48 -5 -70 -10z m196 -142 c73 -46 103 -99 102 -181 -1 -71 -23 -123 -76 -173 -65 -63 -220 -66 -279 -7 -59 59 -73 89 -83 168 -5 36 -3 57 4 61 6 4 11 17 11 30 0 25 55 87 104 117 22 13 50 19 96 19 57 0 73 -4 121 -34z"/> <path d="M1209 4172 c-44 -21 -67 -43 -90 -90 -35 -68 -15 -139 57 -202 l29 -25 1020 -3 c561 -2 1048 0 1082 3 52 5 66 11 95 40 87 88 61 223 -53 275 -43 19 -69 20 -1074 19 -942 -1 -1033 -2 -1066 -17z m2052 -102 c53 -15 64 -32 45 -68 -8 -16 -23 -33 -33 -38 -10 -5 -453 -10 -984 -11 -886 -1 -970 0 -1000 15 -59 29 -46 80 26 104 34 11 1906 9 1946 -2z"/> <path d="M6565 2158 c-22 -6 -47 -14 -55 -19 -8 -5 -24 -13 -35 -18 -25 -11 -90 -71 -99 -91 -3 -8 -17 -33 -31 -55 -21 -35 -24 -52 -25 -141 0 -73 4 -105 15 -120 8 -10 15 -26 15 -35 0 -22 91 -116 131 -137 19 -10 62 -26 95 -36 52 -16 68 -17 110 -6 27 6 61 14 76 17 15 3 33 11 39 19 6 8 17 14 25 14 20 0 114 111 132 155 23 59 28 200 8 230 -9 13 -16 29 -16 34 0 31 -108 151 -136 151 -4 0 -15 6 -23 13 -19 16 -111 37 -154 36 -18 -1 -50 -6 -72 -11z m194 -141 c74 -45 114 -118 108 -198 -6 -75 -25 -107 -92 -159 -57 -44 -76 -48 -186 -41 -32 2 -110 64 -131 104 -51 100 -47 164 16 240 54 66 95 87 171 87 50 0 69 -5 114 -33z"/> <path d="M7575 2158 c-22 -6 -47 -14 -55 -19 -8 -5 -24 -13 -35 -18 -28 -12 -103 -89 -123 -125 -53 -100 -54 -208 -4 -315 17 -34 103 -131 118 -131 4 0 15 -6 23 -13 9 -7 48 -21 87 -31 70 -17 73 -17 143 2 190 54 296 232 248 414 -7 27 -18 53 -25 60 -7 7 -12 17 -12 23 0 15 -88 105 -114 116 -12 5 -28 13 -36 18 -23 14 -107 31 -143 30 -17 -1 -50 -6 -72 -11z m146 -117 c48 -11 102 -55 130 -105 57 -101 4 -257 -101 -303 -46 -19 -145 -19 -192 1 -45 19 -104 93 -119 149 -15 57 -3 119 31 162 16 20 30 39 32 43 2 4 21 19 43 35 43 29 102 35 176 18z"/> <path d="M1182 1970 c-47 -34 -82 -94 -82 -141 0 -39 25 -84 70 -126 l35 -33 1070 0 c1006 0 1072 1 1097 18 65 43 96 117 77 184 -16 55 -40 86 -84 109 -34 18 -76 19 -1088 19 l-1054 0 -41 -30z m2111 -93 c38 -25 36 -62 -5 -87 -32 -19 -55 -20 -1003 -20 -949 1 -971 1 -1003 20 -18 11 -35 27 -39 36 -10 25 32 57 84 65 27 4 473 6 993 5 887 -1 948 -2 973 -19z"/> </g> </svg> 