 <svg  version="1.0" xmlns="http://www.w3.org/2000/svg"  width="900.000000pt" height="732.000000pt" viewBox="0 0 900.000000 732.000000"  preserveAspectRatio="xMidYMid meet">  <g transform="translate(0.000000,732.000000) scale(0.100000,-0.100000)" fill="#a50303" stroke="none"> <path d="M435 7225 c-27 -6 -68 -19 -90 -29 -48 -22 -175 -148 -175 -175 0 -10 -6 -24 -14 -30 -7 -6 -17 -30 -22 -54 -11 -55 -11 -5179 0 -5234 5 -24 15 -48 22 -54 8 -6 14 -20 14 -30 0 -22 116 -144 151 -159 13 -5 31 -14 39 -19 65 -37 -72 -36 4105 -39 3951 -2 4020 -2 4075 17 80 28 112 47 151 85 83 83 103 115 133 215 15 48 16 285 16 2601 0 2301 -2 2553 -16 2601 -9 30 -20 61 -25 69 -5 8 -15 29 -23 47 -15 33 -84 109 -116 127 -52 30 -110 55 -153 65 -70 16 -8002 13 -8072 -4z m8067 -105 c20 -6 63 -28 96 -50 51 -34 63 -49 93 -112 l34 -73 0 -2570 0 -2570 -24 -49 c-13 -27 -44 -70 -70 -96 -38 -38 -60 -51 -131 -72 l-85 -27 -3965 2 c-2882 1 -3970 5 -3985 13 -11 6 -46 24 -78 40 -41 20 -69 43 -93 78 -69 95 -64 -130 -64 2681 0 2920 -11 2616 97 2722 45 45 76 66 110 77 42 13 557 15 4038 15 2686 1 4002 -2 4027 -9z"/> <path d="M640 6960 c-78 -4 -113 -10 -133 -23 -50 -32 -93 -83 -105 -124 -9 -31 -12 -510 -12 -2075 0 -1758 2 -2041 15 -2084 16 -56 92 -137 137 -148 15 -3 1787 -6 3939 -6 l3912 0 44 21 c48 23 107 89 117 132 9 36 8 4114 -1 4157 -4 21 -25 52 -60 86 -43 42 -64 55 -106 64 -38 8 -1055 10 -3847 8 -2087 -2 -3842 -5 -3900 -8z m7807 -103 c2 -2 4 -961 6 -2131 l2 -2126 -3977 0 c-2187 0 -3978 3 -3980 8 -2 4 -2 962 0 2129 2 1973 3 2122 19 2125 23 4 7925 -1 7930 -5z"/> <path d="M3689 2265 c-95 -26 -199 -124 -225 -212 -8 -25 -14 -77 -14 -115 0 -90 37 -166 112 -232 50 -44 72 -54 193 -85 17 -5 354 -7 750 -6 705 3 721 3 776 24 67 26 106 53 153 110 56 67 69 105 70 201 1 78 -2 90 -34 153 -19 37 -39 67 -46 67 -6 0 -21 12 -35 26 -28 31 -87 59 -149 73 -71 16 -1492 13 -1551 -4z m1596 -105 c173 -88 183 -301 20 -409 l-40 -26 -790 0 c-773 0 -791 0 -820 20 -72 48 -125 135 -125 205 0 78 59 166 140 209 33 18 77 19 805 20 750 1 772 0 810 -19z"/> <path d="M3692 2029 c-52 -51 -54 -97 -9 -153 l24 -29 769 1 769 0 27 31 c42 47 39 99 -7 146 l-36 35 -752 0 -753 0 -32 -31z"/> <path d="M3684 1251 c-2 -2 -4 -15 -4 -27 0 -13 -6 -38 -14 -56 -19 -47 -36 -98 -46 -137 -5 -18 -13 -38 -19 -44 -6 -6 -11 -23 -11 -37 0 -14 -7 -35 -15 -46 -8 -10 -15 -29 -15 -41 0 -12 -7 -35 -15 -52 -8 -17 -22 -45 -30 -62 -8 -17 -15 -38 -15 -47 0 -16 71 -17 975 -17 l975 0 0 25 c0 14 -7 34 -15 44 -8 11 -15 29 -15 40 0 12 -7 30 -15 40 -8 11 -15 29 -15 41 0 12 -7 30 -15 41 -8 10 -15 31 -15 45 0 14 -7 34 -15 45 -8 10 -15 30 -15 44 0 14 -6 34 -14 45 -7 11 -16 34 -19 50 -3 17 -12 47 -20 68 l-14 39 -787 1 c-433 1 -790 0 -792 -2z m1478 -113 c21 -10 66 -104 97 -198 24 -71 21 -114 -9 -130 -12 -6 -293 -10 -773 -10 -753 0 -754 0 -781 21 -29 23 -29 51 0 107 8 15 14 36 14 47 0 17 61 159 72 167 6 5 1244 13 1303 9 33 -2 68 -8 77 -13z"/> <path d="M2544 547 c-21 -4 -59 -10 -84 -14 -25 -3 -54 -12 -65 -19 -11 -8 -29 -14 -41 -14 -12 0 -27 -7 -34 -15 -7 -8 -20 -15 -30 -15 -10 0 -23 -7 -30 -15 -7 -8 -18 -15 -24 -15 -38 -1 -231 -200 -267 -275 -5 -11 -21 -40 -34 -64 -14 -24 -23 -46 -22 -48 2 -2 1157 -4 2565 -6 1848 -1 2562 1 2562 9 0 6 -11 31 -25 55 -14 24 -28 51 -32 59 -12 27 -89 124 -134 169 -66 66 -179 135 -284 174 -110 41 -102 41 -2081 41 -1046 1 -1919 -2 -1940 -7z m3926 -119 c95 -24 183 -68 260 -129 102 -82 128 -141 69 -153 -18 -3 -1068 -6 -2334 -6 -2052 0 -2304 2 -2323 16 -12 8 -22 19 -22 23 0 18 76 104 121 136 106 76 214 115 344 125 50 4 929 7 1955 6 1688 -2 1871 -3 1930 -18z"/> </g> </svg> 