 <svg  version="1.0" xmlns="http://www.w3.org/2000/svg"  width="900.000000pt" height="768.000000pt" viewBox="0 0 900.000000 768.000000"  preserveAspectRatio="xMidYMid meet">  <g transform="translate(0.000000,768.000000) scale(0.100000,-0.100000)" fill="#a50303" stroke="none"> <path d="M4481 7505 c-18 -8 -41 -15 -51 -15 -10 0 -23 -7 -30 -15 -7 -8 -20 -15 -29 -15 -9 0 -38 -23 -66 -50 -27 -28 -56 -50 -63 -50 -7 0 -24 13 -38 30 -23 27 -48 41 -149 86 -58 25 -305 25 -367 0 -140 -58 -222 -113 -263 -178 -19 -31 -49 -36 -74 -14 -25 23 -100 47 -181 59 -139 21 -474 7 -528 -22 -11 -6 -36 -11 -54 -11 -18 -1 -44 -7 -58 -15 -14 -8 -33 -14 -43 -15 -11 0 -35 -7 -55 -16 -21 -8 -50 -21 -67 -28 -89 -39 -146 -68 -194 -100 -29 -20 -56 -36 -60 -36 -8 0 -163 -159 -176 -181 -22 -38 -54 -106 -68 -143 l-14 -39 -146 -1 c-102 -1 -150 -5 -158 -13 -7 -7 -24 -13 -38 -13 -15 0 -39 -7 -55 -15 -15 -8 -35 -15 -43 -15 -13 0 -49 -16 -93 -42 -8 -4 -27 -13 -42 -19 -16 -6 -28 -15 -28 -20 0 -5 -5 -9 -11 -9 -6 0 -30 -14 -53 -32 -94 -73 -178 -173 -220 -263 -11 -22 -25 -52 -33 -67 -7 -14 -13 -35 -13 -46 0 -11 -7 -36 -15 -55 -8 -20 -15 -66 -15 -102 l0 -65 -31 0 c-30 0 -70 -14 -132 -46 -16 -8 -33 -14 -37 -14 -5 0 -29 -13 -53 -30 -25 -16 -50 -30 -55 -30 -6 0 -15 -6 -19 -13 -4 -6 -40 -38 -80 -69 -44 -36 -99 -94 -145 -155 -78 -105 -83 -113 -152 -275 -9 -20 -16 -47 -16 -61 0 -13 -7 -41 -15 -60 -20 -49 -21 -313 -1 -361 7 -18 17 -51 21 -74 6 -37 4 -43 -29 -73 -20 -18 -36 -38 -36 -44 0 -7 -6 -18 -14 -24 -8 -7 -16 -28 -19 -49 -3 -20 -9 -52 -13 -70 -11 -56 31 -220 69 -270 27 -35 103 -109 116 -113 7 -3 17 -26 22 -52 21 -114 26 -133 36 -152 6 -11 21 -42 34 -70 12 -27 25 -52 28 -55 4 -3 11 -16 17 -30 29 -64 189 -231 299 -310 109 -78 104 -76 222 -134 43 -21 90 -45 105 -52 14 -8 33 -14 41 -14 8 0 28 -7 43 -15 16 -8 39 -15 50 -15 12 0 35 -7 50 -15 16 -8 43 -15 59 -15 17 0 50 -7 74 -16 55 -19 333 -25 371 -7 l25 11 -30 12 c-16 7 -80 16 -141 20 -123 9 -258 27 -289 39 -11 5 -60 21 -110 36 -91 28 -229 91 -320 145 -27 16 -57 33 -65 37 -24 11 -126 96 -192 159 -37 36 -56 59 -93 114 -20 30 -40 57 -45 60 -14 9 -78 155 -100 230 -23 76 -52 127 -112 190 -58 63 -91 135 -96 215 -5 77 4 113 59 228 30 66 31 72 24 145 -19 201 -12 384 17 416 4 6 8 19 8 30 0 42 66 186 118 260 39 56 180 203 227 236 50 36 201 115 236 123 14 4 46 26 71 49 38 37 47 54 62 113 25 102 38 147 51 175 55 119 99 177 204 267 127 108 302 178 489 193 64 5 123 10 130 10 22 0 103 83 127 131 79 155 294 313 530 391 108 35 218 60 263 59 18 0 43 4 57 9 37 14 282 15 345 1 30 -7 94 -22 142 -33 49 -11 98 -18 113 -14 23 6 98 55 177 116 56 43 148 71 253 77 123 7 183 -5 292 -57 109 -53 135 -52 235 6 95 56 152 74 233 74 71 0 198 -31 224 -54 10 -9 22 -16 28 -16 22 0 112 -77 178 -152 38 -43 72 -78 77 -78 14 0 9 55 -9 91 -9 19 -48 66 -87 105 -74 74 -163 125 -275 158 -67 20 -204 20 -250 1z"/> <path d="M5390 7293 c-43 -15 -109 -45 -151 -69 -11 -6 -32 -25 -48 -43 -15 -17 -35 -31 -44 -31 -25 0 -29 -18 -6 -25 23 -8 24 -7 141 48 42 21 82 37 90 37 8 0 18 4 24 8 35 32 204 35 292 6 23 -8 47 -14 53 -14 15 0 148 -80 157 -94 4 -7 18 -20 32 -29 14 -10 50 -49 80 -89 76 -98 103 -108 237 -84 72 14 129 17 213 14 116 -5 149 -13 275 -74 80 -39 201 -138 264 -218 51 -64 151 -221 151 -236 0 -5 7 -26 16 -47 28 -65 32 -77 39 -117 4 -22 13 -49 21 -60 8 -11 14 -28 14 -38 0 -40 33 -97 70 -123 30 -21 55 -28 102 -31 60 -4 132 -26 208 -62 42 -20 165 -139 180 -173 11 -27 26 -52 53 -88 9 -13 17 -32 17 -43 0 -10 7 -32 15 -49 21 -40 46 -215 46 -319 0 -127 14 -154 45 -82 24 57 29 166 10 245 -9 38 -16 80 -16 95 0 15 -7 40 -15 56 -8 15 -15 37 -15 48 0 18 -14 51 -42 98 -4 8 -13 27 -19 43 -6 15 -15 27 -20 27 -5 0 -9 7 -9 14 0 17 -119 141 -167 174 -18 12 -39 22 -46 22 -8 0 -20 7 -27 15 -7 8 -22 15 -34 15 -11 0 -41 7 -66 16 -30 10 -70 14 -125 12 l-80 -3 -7 60 c-10 90 -26 167 -38 179 -5 5 -10 19 -10 31 0 11 -6 29 -14 40 -7 11 -17 35 -21 53 -3 17 -11 32 -16 32 -5 0 -9 9 -9 19 0 11 -7 26 -15 35 -8 8 -15 18 -15 22 0 22 -102 158 -169 226 -105 107 -199 171 -314 214 -39 15 -62 20 -177 41 -77 15 -263 -10 -312 -40 -13 -8 -35 -17 -49 -21 -22 -5 -28 -1 -42 33 -9 21 -17 43 -17 49 0 12 -114 130 -164 171 -38 31 -154 91 -176 91 -10 0 -31 7 -46 15 -40 21 -242 19 -304 -2z"/> <path d="M3673 7051 c-13 -11 -23 -22 -23 -25 0 -13 -71 -153 -87 -172 -20 -24 -63 -48 -108 -62 -31 -9 -79 1 -122 26 -12 6 -32 12 -45 12 -13 0 -41 7 -63 15 -50 18 -448 21 -492 4 -15 -6 -50 -15 -78 -19 -104 -16 -281 -94 -375 -166 -67 -50 -149 -140 -156 -171 -6 -21 -12 -23 -62 -23 -65 0 -209 -39 -262 -71 -8 -5 -27 -14 -42 -20 -16 -6 -28 -15 -28 -20 0 -5 -6 -9 -14 -9 -18 0 -173 -145 -191 -179 -7 -14 -22 -36 -33 -47 -12 -12 -32 -44 -47 -70 -27 -51 -42 -79 -57 -104 -4 -8 -11 -22 -14 -30 -3 -8 -11 -28 -18 -45 -20 -47 -38 -98 -43 -125 -3 -14 -11 -39 -19 -57 -8 -17 -14 -42 -14 -56 0 -13 -7 -44 -15 -67 -8 -23 -15 -61 -15 -84 -1 -22 -7 -70 -15 -106 -11 -54 -11 -68 0 -90 18 -36 57 -55 82 -42 39 21 48 44 55 136 6 91 20 170 40 236 6 19 15 51 19 70 10 50 47 149 71 190 4 8 11 22 14 30 3 8 9 22 14 30 5 8 19 33 31 55 22 42 115 159 146 185 80 67 209 140 248 140 11 0 42 7 69 15 56 17 172 20 211 5 15 -6 58 -15 96 -21 87 -13 119 1 119 55 0 45 -22 61 -104 74 -86 14 -99 25 -66 55 31 29 166 117 178 117 5 0 15 7 22 15 7 8 21 15 30 15 10 0 31 6 47 14 31 16 107 37 198 57 93 20 326 23 405 5 36 -8 76 -17 90 -19 85 -16 212 -83 287 -151 70 -65 113 -77 139 -41 32 44 5 103 -68 150 -16 9 -28 23 -28 30 0 7 12 21 28 30 39 26 83 74 98 111 8 18 18 35 24 39 5 3 10 13 10 22 0 9 7 25 16 34 9 10 17 37 18 59 0 33 -4 45 -24 60 -31 24 -49 24 -77 1z"/> <path d="M4574 7049 c-17 -19 -19 -39 -21 -193 -1 -130 -5 -180 -17 -208 -9 -21 -16 -50 -16 -65 0 -15 -7 -37 -15 -47 -8 -11 -15 -27 -15 -36 0 -9 -11 -37 -25 -61 -14 -24 -28 -50 -31 -58 -15 -29 -72 -109 -105 -145 -43 -48 -183 -156 -202 -156 -8 0 -20 -7 -27 -15 -7 -8 -20 -15 -29 -15 -10 0 -26 -7 -37 -15 -10 -8 -27 -15 -37 -15 -21 0 -47 -55 -47 -97 0 -15 -7 -60 -15 -98 -17 -79 -19 -228 -4 -295 5 -25 13 -67 17 -95 12 -72 36 -105 78 -105 65 0 94 61 57 117 -16 24 -18 53 -17 235 0 187 2 209 19 228 10 11 24 20 31 20 14 0 66 27 119 61 17 10 37 22 45 26 8 4 26 17 40 30 14 12 41 37 62 55 45 41 127 136 139 163 5 11 18 34 29 50 11 17 23 37 26 45 3 8 12 29 19 45 13 29 30 74 54 145 25 72 50 324 41 417 -6 70 -29 103 -70 103 -15 0 -35 -9 -46 -21z"/> <path d="M5510 6990 c-57 -32 -116 -86 -162 -148 -70 -92 -98 -165 -98 -253 0 -53 -1 -55 -37 -74 -106 -55 -232 -172 -310 -288 -61 -91 -127 -245 -143 -337 -5 -25 -13 -58 -19 -73 -7 -18 -11 -117 -11 -260 0 -211 2 -235 19 -264 25 -40 52 -48 90 -28 41 21 48 55 28 131 -19 71 -23 287 -7 344 6 19 14 60 19 90 5 30 14 71 21 90 46 128 47 130 70 165 11 17 23 37 27 45 27 59 181 220 244 255 99 54 156 74 264 91 208 33 409 -39 578 -208 55 -55 90 -62 125 -25 33 34 27 59 -25 111 -53 54 -126 116 -137 116 -4 0 -22 11 -39 24 -46 34 -186 96 -217 96 -10 0 -45 7 -77 15 -79 21 -168 19 -244 -5 -35 -11 -69 -18 -76 -16 -20 8 -16 54 10 104 24 50 134 172 154 172 24 0 81 41 87 63 3 12 -2 34 -12 52 -22 38 -71 44 -122 15z"/> <path d="M6728 6353 c-9 -2 -22 -18 -28 -34 -15 -36 1 -76 36 -90 53 -20 120 -134 130 -222 l7 -59 -54 7 c-30 4 -73 13 -97 21 -61 20 -77 18 -106 -17 -33 -39 -33 -54 3 -90 27 -26 36 -29 96 -29 36 0 82 -7 102 -15 19 -8 47 -15 62 -15 14 0 35 -7 45 -15 11 -8 27 -15 36 -15 9 0 37 -11 61 -25 24 -14 51 -28 59 -32 29 -13 135 -98 165 -132 33 -38 95 -137 95 -152 0 -5 7 -23 15 -40 10 -18 16 -59 17 -107 2 -70 4 -80 29 -104 34 -34 58 -35 93 -3 31 28 33 63 11 148 -8 32 -15 67 -15 78 0 12 -6 33 -14 47 -7 15 -24 49 -37 75 -42 85 -48 94 -112 159 -66 67 -110 106 -142 125 -46 27 -163 83 -174 83 -13 0 -15 9 -11 68 4 89 -49 232 -114 305 -66 74 -105 94 -158 80z"/> <path d="M3483 6183 c-50 -61 -125 -162 -139 -188 -58 -109 -84 -167 -84 -193 0 -28 -12 -33 -37 -19 -12 7 -36 21 -55 31 -41 23 -143 37 -221 29 -70 -7 -93 -32 -83 -86 7 -37 47 -59 81 -46 29 11 123 11 143 -1 9 -5 28 -14 42 -20 73 -29 85 -47 86 -135 0 -85 19 -204 33 -218 6 -6 11 -20 11 -30 0 -10 6 -31 14 -45 8 -15 17 -34 20 -42 4 -8 15 -28 26 -45 11 -16 24 -40 29 -51 11 -25 58 -64 76 -64 19 0 75 56 75 75 0 9 -13 34 -29 54 -29 36 -76 124 -102 191 -21 54 -24 303 -5 345 9 18 16 38 16 43 0 12 21 55 70 146 23 42 93 137 141 188 34 38 38 79 9 108 -35 35 -73 26 -117 -27z"/> <path d="M5590 6144 c-8 -3 -23 -18 -32 -35 -15 -25 -18 -55 -18 -172 1 -98 5 -155 15 -182 8 -22 15 -47 15 -56 0 -22 56 -128 81 -155 14 -15 19 -29 14 -43 -5 -18 -14 -21 -55 -21 -47 0 -75 -9 -165 -52 -102 -48 -242 -164 -274 -226 -26 -49 30 -113 81 -93 13 5 40 30 61 54 126 153 352 239 545 208 67 -10 98 -19 162 -46 66 -27 142 -95 195 -175 25 -37 45 -74 45 -81 0 -8 6 -26 14 -40 8 -15 17 -69 21 -120 6 -78 11 -96 31 -116 29 -28 53 -29 88 -2 21 17 26 29 26 68 0 26 -7 73 -15 104 -8 32 -15 67 -15 78 0 12 -6 33 -13 47 -8 15 -22 45 -32 67 -11 22 -34 59 -53 83 -38 48 -37 61 10 112 96 102 170 130 246 91 l41 -21 36 35 c19 20 35 39 35 44 0 5 -9 20 -21 34 -27 35 -101 67 -154 67 -86 0 -232 -90 -284 -176 -28 -47 -49 -54 -77 -27 -18 18 -48 38 -74 48 -8 4 -24 11 -35 17 -22 12 -72 25 -149 37 -34 5 -55 15 -68 32 -11 13 -29 36 -41 50 -76 89 -133 308 -107 409 22 84 23 114 3 132 -20 18 -60 28 -83 22z"/> <path d="M1960 5933 c-31 -11 -50 -37 -50 -67 0 -32 30 -129 53 -169 53 -95 208 -262 252 -273 14 -3 25 -11 25 -18 0 -18 -61 -90 -115 -135 -66 -55 -61 -52 -135 -87 -89 -42 -128 -56 -175 -61 -52 -7 -85 -37 -85 -79 0 -26 7 -36 35 -54 32 -20 36 -20 64 -6 17 9 41 16 54 16 13 0 32 7 43 15 10 8 27 15 36 15 9 0 29 7 45 14 15 8 35 18 43 21 8 3 29 14 45 25 17 11 40 24 53 30 42 18 167 154 215 234 49 79 54 103 27 116 -8 4 -31 15 -50 24 -53 25 -148 110 -202 181 -26 35 -48 68 -48 73 0 5 -6 15 -14 21 -8 6 -17 33 -21 59 -8 58 -26 102 -42 102 -6 0 -17 2 -25 4 -7 3 -20 2 -28 -1z"/> <path d="M7992 5113 c-37 -7 -20 -26 44 -48 32 -11 66 -25 74 -30 8 -5 33 -19 55 -30 22 -11 58 -43 82 -72 50 -63 59 -112 49 -278 l-7 -111 33 -36 c18 -19 53 -48 78 -63 141 -86 194 -215 188 -459 l-3 -121 48 -90 c47 -87 49 -92 49 -177 1 -86 -1 -95 -48 -205 -26 -62 -28 -127 -6 -210 53 -198 50 -339 -10 -458 -38 -76 -83 -123 -164 -170 -67 -39 -144 -114 -144 -139 0 -24 -62 -147 -77 -153 -7 -3 -13 -10 -13 -16 0 -18 -52 -67 -71 -67 -9 0 -22 -7 -29 -16 -17 -20 -88 -55 -120 -59 -14 -2 -43 -9 -65 -15 -46 -13 -83 -16 -295 -25 -168 -7 -270 -28 -234 -48 28 -16 344 -21 439 -7 44 6 104 15 133 19 28 4 57 12 64 19 7 7 24 12 39 12 15 0 32 7 39 15 7 8 17 15 22 15 19 0 116 82 144 122 46 65 74 125 74 159 0 60 45 109 99 109 50 0 195 141 227 220 3 8 12 29 19 45 13 30 28 133 28 190 1 56 -22 208 -33 219 -5 5 -10 20 -10 33 0 13 -9 40 -20 60 -11 21 -20 45 -20 54 0 9 9 24 20 34 11 10 20 24 20 30 0 7 7 18 15 25 8 7 15 20 15 30 0 10 7 31 15 46 21 40 21 232 0 260 -8 10 -15 26 -15 35 0 10 -22 40 -50 68 l-49 50 21 67 c19 60 19 74 9 152 -19 151 -27 192 -39 204 -7 7 -12 18 -12 25 0 24 -78 118 -127 154 -34 24 -62 35 -98 39 -44 4 -50 8 -53 29 -3 15 3 30 13 37 35 26 42 268 9 321 -8 12 -14 29 -14 37 0 21 -89 107 -131 128 -99 48 -134 55 -207 41z"/> <path d="M7005 4912 c-11 -2 -34 -16 -53 -30 -40 -31 -122 -135 -122 -155 0 -8 -7 -20 -15 -27 -8 -7 -15 -20 -15 -30 0 -10 -7 -34 -15 -53 -8 -20 -15 -64 -15 -97 0 -41 -4 -60 -12 -60 -31 0 -174 -150 -201 -210 -4 -8 -16 -28 -27 -45 -11 -16 -24 -39 -30 -50 -6 -11 -19 -33 -30 -50 -11 -16 -24 -39 -30 -50 -12 -23 -30 -51 -84 -130 -43 -64 -176 -201 -209 -216 -12 -5 -56 -27 -97 -49 -41 -22 -81 -40 -90 -40 -8 0 -24 -7 -34 -15 -11 -8 -26 -15 -34 -15 -8 0 -28 -6 -45 -14 -18 -8 -43 -16 -57 -19 -14 -3 -38 -10 -55 -15 -58 -20 -121 -34 -190 -42 -38 -5 -90 -13 -115 -19 -67 -16 -223 -13 -315 5 -84 17 -193 48 -223 63 -9 5 -24 12 -32 16 -90 36 -279 216 -280 266 0 17 -52 59 -72 59 -17 -1 -53 -30 -66 -55 -8 -15 -6 -27 6 -50 26 -47 100 -143 123 -159 13 -9 19 -22 17 -37 -2 -19 -13 -25 -63 -36 -269 -62 -457 -30 -600 102 -71 65 -100 70 -133 25 -12 -16 -22 -37 -22 -48 0 -27 78 -96 154 -137 24 -12 43 -42 33 -51 -7 -7 -42 -15 -157 -34 -30 -5 -71 -14 -90 -20 -131 -38 -380 23 -465 114 -35 38 -86 45 -114 15 -20 -21 -30 -79 -13 -79 4 0 22 -13 40 -30 18 -16 38 -30 44 -32 7 -3 9 -12 5 -23 -7 -17 -20 -18 -205 -13 -197 5 -254 15 -335 54 -16 8 -33 14 -38 14 -5 0 -28 13 -51 30 -22 17 -48 30 -58 30 -20 0 -70 -51 -70 -72 0 -27 39 -66 88 -89 26 -12 59 -28 74 -35 14 -8 40 -14 56 -14 72 0 80 -27 27 -96 -19 -25 -35 -52 -35 -61 0 -8 -6 -27 -14 -41 -26 -48 -49 -216 -43 -300 9 -107 26 -160 59 -180 24 -14 30 -14 54 -2 37 20 43 44 32 125 -12 88 -1 267 18 303 7 15 14 33 14 40 0 8 16 37 35 65 66 98 50 90 192 92 71 1 141 7 156 13 16 7 41 12 57 12 28 0 62 12 136 47 28 13 35 13 62 -1 24 -13 63 -16 179 -16 82 0 164 5 183 11 19 6 53 15 75 19 55 11 149 45 195 71 75 42 100 50 120 39 33 -18 141 -23 205 -10 33 7 80 16 105 20 56 10 98 24 178 63 36 17 67 26 70 21 12 -16 71 -54 84 -54 7 0 22 -7 32 -15 11 -8 29 -15 40 -15 12 0 30 -7 40 -15 11 -8 31 -15 45 -15 14 0 44 -7 66 -15 30 -10 94 -14 250 -15 205 0 256 5 400 41 22 6 60 14 85 20 24 5 49 14 54 19 6 6 22 10 36 10 14 0 35 7 46 15 10 8 27 15 37 15 11 0 31 6 45 13 15 8 45 22 67 32 22 9 47 21 55 26 8 4 37 20 64 34 27 15 55 32 61 38 6 7 31 27 56 46 69 54 140 141 247 307 6 10 17 28 22 39 6 11 19 34 30 50 11 17 24 39 30 50 6 11 19 34 30 50 11 17 23 38 26 48 4 9 9 17 13 17 3 0 17 20 31 45 15 27 32 45 43 45 20 0 37 -37 37 -82 0 -16 6 -42 14 -56 7 -15 23 -47 35 -72 26 -53 76 -126 134 -192 34 -39 47 -48 74 -48 40 0 73 30 73 65 0 20 -73 116 -110 145 -4 3 -10 12 -13 20 -4 8 -16 29 -27 45 -11 17 -22 37 -26 45 -3 8 -11 29 -18 45 -44 101 -57 239 -31 330 35 119 56 151 158 243 41 36 45 56 19 88 -19 23 -47 32 -77 26z"/> <path d="M578 4885 c-27 -36 -22 -61 17 -91 38 -28 84 -42 178 -51 60 -6 80 -19 56 -37 -19 -15 -59 -73 -59 -85 0 -5 -6 -22 -14 -38 -39 -76 -57 -254 -35 -338 6 -22 14 -59 18 -83 4 -24 13 -48 19 -54 7 -7 12 -18 12 -24 0 -7 15 -39 34 -71 55 -93 155 -187 241 -227 22 -11 52 -25 67 -33 37 -19 71 -16 96 7 22 20 29 64 14 86 -10 16 -68 44 -90 44 -11 0 -25 7 -32 15 -7 8 -17 15 -22 15 -37 0 -153 126 -183 200 -4 8 -14 33 -23 55 -13 30 -17 71 -17 175 0 134 8 178 46 240 5 8 12 22 16 30 18 41 103 140 120 140 7 0 17 9 23 20 9 17 6 27 -19 59 -17 22 -31 44 -31 49 0 21 -20 23 -47 5 -39 -26 -242 -26 -270 0 -30 26 -94 22 -115 -8z"/> <path d="M7388 4885 c-35 -47 -21 -74 58 -114 52 -27 65 -42 102 -116 30 -61 62 -202 62 -271 0 -64 -34 -206 -62 -260 l-26 -51 20 -32 c16 -25 27 -31 55 -31 34 0 72 29 73 56 0 7 7 25 15 40 8 16 15 46 15 68 0 38 1 38 31 32 36 -7 108 -64 147 -115 63 -84 79 -158 61 -283 -10 -68 -9 -81 5 -103 31 -48 116 -24 116 33 0 11 5 33 11 49 22 58 1 255 -30 286 -6 6 -11 17 -11 25 0 23 -87 128 -137 165 -47 34 -132 77 -152 77 -7 0 -11 36 -11 98 -1 58 -7 113 -15 137 -8 22 -15 48 -15 58 0 17 -14 49 -41 97 -5 8 -13 24 -18 35 -13 29 -77 92 -122 120 -52 33 -108 33 -131 0z"/> <path d="M3021 4794 c-34 -29 -40 -63 -16 -104 20 -35 19 -167 -2 -256 -19 -80 -33 -94 -101 -94 -38 0 -116 -22 -165 -46 -16 -8 -37 -14 -47 -14 -9 0 -23 -7 -30 -15 -7 -8 -20 -15 -30 -15 -10 0 -23 -7 -30 -15 -7 -8 -17 -15 -22 -15 -24 0 -141 -105 -184 -164 l-21 -29 -36 71 c-40 81 -104 167 -169 228 -45 43 -153 126 -178 137 -8 4 -28 16 -45 27 -16 11 -37 22 -45 26 -8 3 -22 10 -30 15 -8 5 -22 12 -30 15 -8 3 -23 10 -32 15 -10 5 -26 9 -37 9 -23 0 -71 -47 -71 -69 0 -18 49 -71 65 -71 8 0 118 -54 172 -84 70 -39 201 -167 250 -242 53 -83 93 -155 93 -169 0 -8 -8 -18 -17 -21 -27 -9 -66 -25 -83 -35 -8 -5 -25 -13 -37 -18 -12 -6 -53 -40 -92 -77 -94 -88 -152 -177 -216 -329 -18 -45 -37 -123 -44 -185 -4 -30 -10 -60 -14 -67 -9 -15 17 -82 35 -87 71 -23 98 -8 98 52 0 70 39 221 76 295 8 16 14 33 14 38 0 19 90 140 139 186 64 61 155 110 221 119 50 7 53 8 71 53 34 81 53 112 97 156 42 43 142 115 160 115 5 0 15 7 22 15 7 8 22 15 34 15 12 0 31 7 42 15 10 8 29 15 41 15 13 0 40 6 60 14 73 27 280 47 373 36 216 -25 279 -38 347 -66 17 -8 37 -14 45 -14 8 0 23 -7 34 -15 10 -8 26 -15 35 -15 9 0 22 -7 29 -15 21 -26 45 -17 69 26 49 87 225 248 337 309 21 11 46 25 54 29 15 9 55 26 123 55 145 60 440 95 556 66 25 -7 69 -16 96 -20 88 -14 216 -65 303 -122 24 -15 47 -28 52 -28 5 0 51 -41 102 -91 98 -96 135 -114 173 -86 13 10 19 27 19 52 0 34 -7 44 -80 111 -100 94 -105 98 -156 131 -78 50 -84 53 -120 68 -7 3 -20 9 -28 14 -44 26 -140 60 -200 71 -25 5 -58 14 -75 20 -48 19 -428 16 -484 -4 -24 -9 -55 -16 -70 -16 -14 0 -39 -7 -55 -15 -15 -8 -34 -15 -42 -15 -22 0 -195 -80 -256 -118 -37 -23 -111 -75 -124 -87 -6 -5 -37 -32 -68 -59 -32 -28 -71 -69 -88 -93 -35 -48 -49 -51 -116 -24 -129 51 -250 74 -416 78 -76 1 -141 5 -144 7 -2 3 3 21 12 40 13 28 17 66 17 181 0 153 -10 193 -50 215 -28 15 -36 13 -70 -16z"/> <path d="M7813 3391 c-13 -11 -23 -24 -23 -29 0 -23 -122 -120 -191 -153 -142 -68 -146 -69 -234 -69 l-85 0 0 -62 c0 -91 43 -223 96 -295 13 -17 24 -35 24 -39 0 -13 135 -146 190 -188 65 -48 87 -63 117 -75 11 -6 24 -15 28 -20 3 -6 21 -11 39 -11 24 0 38 7 54 30 12 16 22 35 22 43 0 19 -48 61 -100 86 -109 53 -248 198 -306 319 -34 72 -30 85 30 94 27 4 54 12 59 17 6 6 18 11 26 11 53 0 271 144 324 213 42 55 45 90 12 121 -33 31 -52 32 -82 7z"/> <path d="M4662 3117 c-35 -37 -28 -68 26 -121 26 -27 60 -53 75 -58 20 -7 27 -16 25 -31 -3 -23 -2 -22 -128 -80 -123 -56 -154 -67 -217 -78 -29 -5 -64 -14 -78 -19 -63 -24 -244 -4 -348 38 -35 14 -39 14 -65 -5 -37 -28 -43 -86 -10 -113 13 -11 34 -20 48 -20 14 0 47 -7 74 -15 69 -21 342 -21 393 0 19 8 48 15 62 15 15 0 36 7 47 15 10 8 27 15 36 15 14 0 52 16 98 42 8 4 20 10 25 12 6 2 17 7 25 10 8 3 29 15 45 26 17 11 37 23 45 27 8 3 29 17 46 30 38 28 34 28 97 0 97 -43 114 -48 252 -76 28 -6 88 -16 135 -22 129 -17 424 1 477 29 12 7 32 12 45 12 13 0 33 7 44 15 10 8 25 15 33 15 19 0 101 39 124 58 25 22 22 79 -5 103 -28 22 -51 24 -68 4 -7 -8 -20 -15 -30 -15 -10 0 -23 -7 -30 -15 -7 -8 -21 -15 -30 -15 -10 0 -31 -6 -47 -14 -64 -32 -123 -39 -337 -43 -147 -3 -229 0 -250 7 -17 6 -53 15 -81 20 -27 4 -66 13 -85 20 -178 64 -235 96 -319 178 -82 80 -111 89 -149 49z"/> <path d="M1886 3029 c-4 -20 0 -43 9 -62 8 -17 15 -42 15 -57 0 -14 7 -35 15 -46 8 -10 15 -25 15 -32 0 -15 25 -76 41 -102 5 -8 14 -26 19 -39 12 -28 94 -153 125 -191 22 -27 185 -189 206 -205 151 -112 353 -212 474 -234 22 -4 50 -13 62 -19 12 -7 39 -12 60 -12 21 0 63 -7 93 -15 64 -17 296 -20 375 -4 28 6 83 14 124 19 40 5 78 13 84 19 6 6 25 11 41 11 17 0 44 7 60 15 15 8 37 15 48 15 11 0 32 6 46 14 46 23 119 56 126 56 8 0 31 18 54 42 9 10 22 18 29 18 6 0 15 5 19 11 11 19 -79 1 -170 -33 -45 -16 -92 -32 -106 -35 -14 -3 -30 -10 -36 -14 -15 -12 -158 -48 -209 -54 -22 -2 -65 -9 -95 -15 -71 -15 -305 -15 -395 0 -38 6 -92 15 -120 20 -27 4 -63 15 -80 23 -16 8 -57 23 -90 32 -321 94 -660 443 -757 780 -20 67 -51 125 -67 125 -5 0 -11 -14 -15 -31z"/> <path d="M4040 2204 c0 -16 85 -133 107 -147 7 -4 13 -12 13 -18 0 -5 33 -54 73 -107 39 -54 77 -105 82 -114 6 -9 61 -91 123 -183 61 -91 112 -169 112 -172 0 -3 13 -22 28 -42 16 -20 32 -43 35 -51 4 -8 16 -28 27 -45 11 -16 24 -39 30 -50 6 -11 19 -33 30 -50 10 -16 31 -52 45 -80 14 -27 35 -63 45 -80 11 -16 22 -37 26 -45 3 -8 9 -22 14 -30 5 -8 25 -49 45 -90 20 -41 41 -82 46 -90 5 -8 12 -22 15 -30 9 -24 35 -83 50 -113 8 -16 14 -36 14 -46 0 -9 7 -26 15 -37 8 -10 15 -31 15 -45 0 -14 7 -34 15 -45 8 -10 15 -29 15 -41 0 -12 7 -34 14 -50 8 -15 18 -35 21 -43 13 -33 84 -141 109 -165 64 -63 167 -115 225 -115 52 0 201 90 201 122 0 6 6 19 13 27 44 54 57 172 30 281 -7 25 -17 65 -23 90 -6 25 -15 70 -20 102 -4 31 -11 62 -16 70 -5 7 -11 36 -15 63 -6 47 -13 82 -39 185 -6 25 -14 61 -18 80 -6 28 -13 36 -32 38 -40 4 -113 23 -145 37 -170 76 -228 117 -302 212 -18 22 -33 46 -33 51 0 6 -6 17 -13 24 -24 25 -49 159 -44 233 5 80 26 168 45 187 6 6 12 17 12 23 0 6 21 31 46 55 43 40 45 45 28 57 -10 7 -44 13 -75 13 -32 0 -70 5 -84 10 -15 6 -59 15 -99 20 -81 10 -161 25 -257 46 -37 8 -82 14 -100 14 -19 0 -52 7 -74 15 -22 8 -59 14 -81 15 -23 0 -61 7 -84 15 -23 8 -56 15 -72 15 -16 0 -46 9 -68 20 -47 24 -70 25 -70 4z m420 -164 c25 -5 88 -16 140 -25 52 -9 146 -25 208 -37 105 -20 113 -23 127 -51 11 -23 12 -39 5 -71 -20 -79 -29 -216 -19 -279 18 -120 83 -234 180 -320 60 -53 225 -147 257 -147 23 0 87 -66 101 -103 6 -16 11 -40 11 -54 0 -15 4 -40 9 -57 17 -55 50 -198 75 -327 27 -135 24 -224 -7 -285 -53 -102 -163 -105 -262 -6 -52 51 -128 185 -146 257 -8 35 -79 210 -122 305 -16 36 -34 76 -41 90 -6 14 -25 50 -42 80 -17 30 -50 91 -73 134 -50 95 -125 222 -196 331 -134 206 -193 295 -240 360 -55 75 -115 181 -115 201 0 25 42 27 150 4z"/> <path d="M5805 2191 c-11 -5 -78 -11 -148 -15 -70 -3 -136 -10 -146 -15 -9 -6 -42 -13 -72 -17 -30 -4 -58 -10 -64 -14 -5 -4 -27 -10 -47 -14 -21 -4 -38 -11 -38 -16 0 -6 -5 -10 -11 -10 -24 0 -98 -44 -102 -60 -4 -15 0 -17 22 -10 15 4 51 19 81 32 101 46 278 82 455 93 303 19 880 0 1105 -36 69 -11 143 -22 165 -26 22 -3 45 -9 51 -14 6 -5 46 -20 88 -32 51 -15 90 -35 120 -60 43 -36 106 -118 106 -138 0 -5 7 -24 16 -41 20 -39 20 -151 -1 -201 -19 -45 -88 -111 -163 -155 -91 -52 -240 -121 -280 -128 -20 -4 -49 -13 -64 -20 -15 -8 -39 -14 -53 -14 -15 0 -47 -8 -73 -19 -45 -18 -111 -33 -217 -52 -27 -4 -88 -15 -135 -24 -146 -27 -431 -35 -553 -15 -33 5 -63 7 -67 5 -4 -2 -35 0 -69 6 -62 10 -133 0 -146 -20 -9 -16 89 -56 155 -62 301 -31 340 -33 468 -20 70 7 163 17 207 21 44 4 93 13 108 19 16 6 44 11 63 11 19 0 51 7 71 15 19 8 52 15 72 15 20 1 47 7 61 15 14 8 39 14 55 15 17 0 39 6 50 14 11 7 34 16 50 18 36 7 89 25 128 44 16 8 37 14 47 14 9 0 23 7 30 15 7 8 18 15 25 15 6 0 32 11 56 25 24 14 51 28 59 32 34 15 130 95 157 130 57 76 63 95 63 196 0 69 -5 105 -18 133 -61 135 -155 203 -373 273 -36 12 -78 21 -92 21 -15 0 -35 4 -45 10 -25 13 -162 30 -347 40 -88 5 -193 14 -233 20 -85 12 -548 12 -577 1z"/> </g> </svg> 