<?xml version="1.0" encoding="UTF-8"?>
<svg version="1.1" xmlns="http://www.w3.org/2000/svg" width="358" height="338">
<path d="M0 0 C118.14 0 236.28 0 358 0 C358 111.54 358 223.08 358 338 C239.86 338 121.72 338 0 338 C0 226.46 0 114.92 0 0 Z " fill="#EEEEEE" transform="translate(0,0)"/>
<path d="M0 0 C118.14 0 236.28 0 358 0 C358 111.54 358 223.08 358 338 C239.86 338 121.72 338 0 338 C0 226.46 0 114.92 0 0 Z M73 58 C70.52780282 60.56209526 68.25240326 63.24353069 66 66 C65.59523437 66.48710449 65.19046875 66.97420898 64.7734375 67.47607422 C41.48930784 95.60255395 28.77983297 129.21249941 28.75 165.8125 C28.74932526 166.5526535 28.74865051 167.29280701 28.74795532 168.0553894 C28.77296643 185.3118837 31.18234311 200.73785037 37 217 C37.22026855 217.62471191 37.44053711 218.24942383 37.66748047 218.89306641 C51.42734478 257.29477923 80.96905105 286.89106003 117 305 C121.89780485 307.2872587 126.90301847 309.19838237 132 311 C133.54300781 311.54914063 133.54300781 311.54914063 135.1171875 312.109375 C148.06270432 316.39160703 162.33743151 319.57246384 176 320 C176.63019043 320.02046387 177.26038086 320.04092773 177.90966797 320.06201172 C222.63142062 321.3097249 263.2883798 305.86018741 295.83154297 275.15014648 C301.03498673 270.11066213 305.6696141 264.81812584 310 259 C310.59941406 258.20464844 311.19882812 257.40929687 311.81640625 256.58984375 C335.95780461 223.37516815 345.96110325 182.50542751 340.26953125 141.8671875 C339.45574188 137.16227609 338.30177813 132.59042364 337 128 C336.65701006 126.66159712 336.3145524 125.32305771 335.97265625 123.984375 C328.38205795 95.96128827 310.59830187 68.28089824 288 50 C286.58267578 48.84371094 286.58267578 48.84371094 285.13671875 47.6640625 C262.8542645 29.82003976 237.09169813 18.76769968 209 14 C208.06800781 13.8246875 207.13601562 13.649375 206.17578125 13.46875 C157.57297118 6.2949035 108.01095713 24.10050183 73 58 Z " fill="#FEFEFE" transform="translate(0,0)"/>
<path d="M0 0 C3.3 0 6.6 0 10 0 C10 9.57 10 19.14 10 29 C13.3 27.02 16.6 25.04 20 23 C25.07132572 21.76985678 29.76826548 22.03920795 34.5859375 24.11328125 C41.79556852 28.55642595 45.54260317 33.65368597 47.8125 41.75 C50.27058026 53.10802605 49.45862362 63.12352658 43.64453125 73.39453125 C40.5871038 77.81263687 37.23473372 81.40160803 32 83 C23.31314927 84.24840969 17.51031655 82.15722159 10.5 77.25 C10.005 76.8375 9.51 76.425 9 76 C9 77.98 9 79.96 9 82 C6.03 82 3.06 82 0 82 C0 54.94 0 27.88 0 0 Z " fill="#050505" transform="translate(244,114)"/>
<path d="M0 0 C6.54999167 4.53549511 10.39129625 10.81236946 12.22265625 18.5390625 C13.37956854 29.38806653 12.31526569 39.52086364 5.59765625 48.4140625 C0.36314676 53.85847713 -5.91526814 56.81063776 -13.46484375 56.9765625 C-17.84767254 56.7711174 -21.65151584 56.00602353 -25.77734375 54.5390625 C-25.77734375 53.8790625 -25.77734375 53.2190625 -25.77734375 52.5390625 C-26.82921875 52.260625 -26.82921875 52.260625 -27.90234375 51.9765625 C-33.09667199 49.37939838 -36.45261297 45.00774812 -38.65234375 39.6640625 C-39.96663626 35.12662407 -40.08872367 30.60680077 -40.15234375 25.9140625 C-40.1663623 25.19750488 -40.18038086 24.48094727 -40.19482422 23.74267578 C-40.11777965 15.17492505 -36.217162 8.89243801 -30.77734375 2.5390625 C-22.38934808 -5.63385635 -9.77212344 -5.54424753 0 0 Z " fill="#040404" transform="translate(218.77734375,140.4609375)"/>
<path d="M0 0 C8.07197804 8.2901396 8 16.62561793 8 28 C-4.87 28 -17.74 28 -31 28 C-28.12079811 38.97591924 -28.12079811 38.97591924 -21 45 C-15.24048821 46.91983726 -10.35908912 46.16668215 -4.8671875 43.93359375 C-2.26521587 42.63260793 -0.14810566 40.94672075 2 39 C3.65 40.65 5.3 42.3 7 44 C2.62462948 50.01613446 -1.99800097 52.66600032 -9 55 C-17.85585593 56.20002164 -24.67422793 54.03379075 -32 49 C-34.54660541 46.56368065 -36.31781283 44.08696101 -38 41 C-38.33644531 40.41863281 -38.67289062 39.83726562 -39.01953125 39.23828125 C-42.44841325 32.02040636 -42.17701905 22.60546428 -40.23828125 15.01953125 C-37.24813251 7.20732445 -33.3665241 1.1602875 -26 -3 C-17.46439815 -6.61121617 -7.55281711 -5.33350592 0 0 Z " fill="#050505" transform="translate(105,142)"/>
<path d="M0 0 C6.93750268 -0.410631 12.13392026 1.21382471 17.8203125 5.2265625 C21.69828345 9.05116688 23.41846552 12.73465379 23.8203125 18.2265625 C20.5203125 18.2265625 17.2203125 18.2265625 13.8203125 18.2265625 C13.2428125 17.1128125 12.6653125 15.9990625 12.0703125 14.8515625 C10.84165875 12.73981387 9.96744943 11.34742498 8.0703125 9.7890625 C3.15695783 8.56072383 -0.85839146 8.8181619 -5.6171875 10.2890625 C-8.51651675 12.07763387 -8.51651675 12.07763387 -9.1796875 15.7265625 C-9.50326261 19.34212504 -9.50326261 19.34212504 -7.1796875 22.2265625 C-4.9809723 23.21845339 -4.9809723 23.21845339 -2.3828125 23.91015625 C-1.42375 24.19826172 -0.4646875 24.48636719 0.5234375 24.78320312 C2.03164062 25.21922852 2.03164062 25.21922852 3.5703125 25.6640625 C17.89547954 29.81425738 17.89547954 29.81425738 22.6953125 35.4140625 C24.60314253 40.18363758 24.81898462 44.60042471 22.9765625 49.4453125 C19.56142283 55.62948433 14.94816434 57.95645424 8.3828125 59.9765625 C7.5371875 60.0590625 6.6915625 60.1415625 5.8203125 60.2265625 C5.17578125 60.28972656 4.53125 60.35289062 3.8671875 60.41796875 C-3.67866427 60.82692225 -9.86474265 58.41301548 -16.1171875 54.2890625 C-20.11046592 50.29578408 -21.52990051 46.81473064 -22.1796875 41.2265625 C-18.8796875 41.2265625 -15.5796875 41.2265625 -12.1796875 41.2265625 C-12.0353125 42.3196875 -11.8909375 43.4128125 -11.7421875 44.5390625 C-11.02045385 47.08575122 -10.58851719 47.98160256 -8.2890625 49.359375 C-2.25760079 51.47243812 3.17295603 52.35414026 9.1953125 49.7890625 C11.66283374 48.46602063 11.66283374 48.46602063 12.8203125 47.2265625 C13.33605826 42.36816502 13.33605826 42.36816502 11.2890625 38.125 C8.09438596 35.66833418 4.87351064 34.96004651 1.0078125 34.1640625 C-13.86248221 30.96660007 -13.86248221 30.96660007 -18.22265625 25.08984375 C-20.20307819 21.23408349 -20.72838671 17.51038287 -20.1796875 13.2265625 C-17.45046498 7.25702711 -13.02490233 3.88347833 -7.1796875 1.2265625 C-4.75958783 0.44166531 -2.5194528 0.26187861 0 0 Z " fill="#040404" transform="translate(144.1796875,136.7734375)"/>
<path d="M0 0 C4.64953201 3.1032427 6.8585257 7.31539741 8.3125 12.625 C9.15775572 19.87549273 9.57198062 27.96204563 6.3125 34.625 C5.6525 34.625 4.9925 34.625 4.3125 34.625 C4.22226563 35.23859375 4.13203125 35.8521875 4.0390625 36.484375 C3.3125 38.625 3.3125 38.625 1.7109375 39.890625 C-2.92175012 42.14436492 -6.43514059 43.38897955 -11.6875 42.625 C-16.60895382 40.87030444 -19.55803863 38.3148609 -21.90625 33.52734375 C-25.22143118 25.45487759 -25.43224821 17.67678378 -23.00390625 9.25390625 C-21.02592453 4.60345144 -18.25209924 1.89180292 -13.83203125 -0.52734375 C-8.84812035 -2.49730489 -5.03407125 -1.87711131 0 0 Z " fill="#E9E9E9" transform="translate(212.6875,146.375)"/>
<path d="M0 0 C5.83559909 6.3357933 6.51410828 14.53551103 6.40234375 22.78125 C5.92365515 28.56032687 4.39632587 32.95978922 0.625 37.375 C-4.16344202 41.30397807 -8.80977515 40.84477847 -14.8125 40.375 C-18.55958274 38.93994703 -20.76297789 36.7974922 -22.95483398 33.42626953 C-24.86923647 28.84761605 -24.42296159 23.75579754 -24.375 18.875 C-24.39884766 17.75996094 -24.42269531 16.64492187 -24.44726562 15.49609375 C-24.43098503 6.38981239 -24.43098503 6.38981239 -21.515625 2.71484375 C-15.04315796 -2.88776861 -7.72027376 -4.46060262 0 0 Z " fill="#E8E8E8" transform="translate(276.8125,147.625)"/>
<path d="M0 0 C3.72615199 2.64970808 5.51191239 5.63155575 6.8125 10 C6.8125 11.98 6.8125 13.96 6.8125 16 C-2.4275 16 -11.6675 16 -21.1875 16 C-20.0236204 5.52508361 -20.0236204 5.52508361 -16.1875 2 C-10.71359521 -1.52762753 -6.19174777 -1.9425091 0 0 Z " fill="#E4E4E4" transform="translate(96.1875,146)"/>
</svg>
